<?xml version="1.0" standalone="no"?>
<!DOCTYPE svg PUBLIC "-//W3C//DTD SVG 20010904//EN"
 "http://www.w3.org/TR/2001/REC-SVG-20010904/DTD/svg10.dtd">
<svg version="1.0" xmlns="http://www.w3.org/2000/svg"
 width="410.000000pt" height="282.000000pt" viewBox="0 0 410.000000 282.000000"
 preserveAspectRatio="xMidYMid meet">

<g transform="translate(0.000000,282.000000) scale(0.100000,-0.100000)"
fill="#000000" stroke="none">
<path d="M2135 2231 c-178 -45 -239 -261 -108 -382 90 -84 216 -84 306 0 115
106 85 293 -58 364 -39 19 -102 27 -140 18z m128 -35 c39 -17 92 -71 106 -109
6 -16 11 -50 11 -77 0 -27 -5 -61 -11 -77 -14 -38 -67 -92 -106 -109 -38 -17
-120 -18 -160 -3 -38 14 -92 67 -109 106 -17 38 -18 120 -3 160 14 37 66 92
104 109 39 17 127 18 168 0z"/>
<path d="M1649 1427 c-104 -30 -190 -104 -237 -206 -22 -46 -27 -71 -27 -141
0 -76 3 -92 32 -151 39 -79 102 -140 181 -177 48 -22 71 -27 142 -27 71 0 94
5 142 27 79 37 142 98 181 177 28 58 32 75 32 151 0 76 -4 93 -32 151 -60 121
-170 196 -300 205 -40 2 -87 -2 -114 -9z m221 -53 c73 -34 126 -86 161 -159
24 -50 29 -73 29 -135 0 -62 -5 -85 -29 -135 -57 -119 -161 -185 -291 -185
-130 0 -234 66 -291 185 -24 50 -29 73 -29 135 0 130 66 234 185 291 82 40
184 41 265 3z"/>
</g>
</svg>
